<svg width="100" height="100" viewBox="0 0 100 100" fill="none" xmlns="http://www.w3.org/2000/svg">
<rect width="100" height="100" rx="8" fill="#7E93FF"/>
<path d="M39.8225 85C38.3505 85 36.5905 84.456 34.5425 83.368C32.5585 82.28 30.7985 81 29.2625 79.528C27.7905 78.056 27.0545 76.84 27.0545 75.88C27.0545 74.216 28.6225 65.736 31.7585 50.44C32.1425 48.648 32.7505 45.608 33.5825 41.32C34.4785 36.968 35.0865 33.832 35.4065 31.912L31.8545 32.488C29.8705 30.632 28.8785 28.296 28.8785 25.48C28.8785 23.496 29.4225 21.448 30.5105 19.336C35.6945 17.992 40.9425 17.32 46.2545 17.32C51.8865 17.32 57.1025 18.056 61.9025 19.528C66.7665 21 70.7025 23.272 73.7105 26.344C76.7185 29.352 78.2225 33.128 78.2225 37.672C78.2225 41.704 76.8785 45.544 74.1905 49.192C71.5665 52.776 67.7265 55.752 62.6705 58.12C57.6145 60.488 51.6625 61.928 44.8145 62.44C44.3665 65.512 44.0145 68.296 43.7585 70.792C43.1825 75.656 42.6385 79.24 42.1265 81.544C41.6145 83.848 40.8465 85 39.8225 85ZM46.2545 50.536C51.8225 49.448 56.1105 47.784 59.1185 45.544C62.1905 43.24 63.7265 40.68 63.7265 37.864C63.7265 35.944 62.7665 34.344 60.8465 33.064C58.9905 31.72 56.4625 31.048 53.2625 31.048C52.1105 31.048 50.8625 31.144 49.5185 31.336L47.9825 40.36C47.0865 45.416 46.5105 48.808 46.2545 50.536Z" fill="white"/>
</svg>
