<svg width="254" height="47" viewBox="0 0 254 47" fill="none" xmlns="http://www.w3.org/2000/svg">
<path d="M8.965 46C7.98367 46 6.81033 45.6373 5.445 44.912C4.12233 44.1867 2.949 43.3333 1.925 42.352C0.943667 41.3707 0.453 40.56 0.453 39.92C0.453 38.8107 1.49833 33.1573 3.589 22.96C3.845 21.7653 4.25033 19.7387 4.805 16.88C5.40233 13.9787 5.80767 11.888 6.021 10.608L3.653 10.992C2.33033 9.75466 1.669 8.19733 1.669 6.32C1.669 4.99733 2.03167 3.632 2.757 2.224C6.213 1.328 9.71167 0.879997 13.253 0.879997C17.0077 0.879997 20.485 1.37066 23.685 2.352C26.9277 3.33333 29.5517 4.848 31.557 6.896C33.5623 8.90133 34.565 11.4187 34.565 14.448C34.565 17.136 33.669 19.696 31.877 22.128C30.1277 24.5173 27.5677 26.5013 24.197 28.08C20.8263 29.6587 16.8583 30.6187 12.293 30.96C11.9943 33.008 11.7597 34.864 11.589 36.528C11.205 39.7707 10.8423 42.16 10.501 43.696C10.1597 45.232 9.64767 46 8.965 46ZM13.253 23.024C16.965 22.2987 19.8237 21.1893 21.829 19.696C23.877 18.16 24.901 16.4533 24.901 14.576C24.901 13.296 24.261 12.2293 22.981 11.376C21.7437 10.48 20.0583 10.032 17.925 10.032C17.157 10.032 16.325 10.096 15.429 10.224L14.405 16.24C13.8077 19.6107 13.4237 21.872 13.253 23.024ZM60.295 34.032C61.4897 34.5867 62.407 35.376 63.047 36.4C63.7297 37.424 64.071 38.5333 64.071 39.728C64.071 41.4773 63.4097 43.0133 62.087 44.336C59.4417 44.8907 56.6043 45.3173 53.575 45.616C50.5457 45.9147 47.815 46.064 45.383 46.064C44.359 46.064 43.6123 46.0427 43.143 46C42.375 45.9573 41.3723 45.552 40.135 44.784C38.9403 44.016 37.8737 43.1413 36.935 42.16C35.9963 41.136 35.527 40.2613 35.527 39.536C35.527 38.768 35.9963 36.3573 36.935 32.304C37.831 28.5067 38.663 24.5173 39.431 20.336L39.943 17.52C40.7963 12.6987 41.5857 8.77333 42.311 5.744C43.079 2.71466 43.847 1.2 44.615 1.2C45.4257 1.2 46.5137 1.56266 47.879 2.288C49.2443 3.01333 50.439 3.86667 51.463 4.848C52.5297 5.82933 53.063 6.68267 53.063 7.408C53.063 7.83466 52.8283 8.88 52.359 10.544C51.9323 12.1653 51.6763 13.168 51.591 13.552C50.183 18.544 49.0737 22.896 48.263 26.608C47.7083 29.2533 46.8763 32.7947 45.767 37.232C50.759 36.72 55.6017 35.6533 60.295 34.032ZM99.171 30.064C99.2137 30.7467 99.363 32.4747 99.619 35.248C99.9177 37.9787 100.067 40.2613 100.067 42.096C100.067 44.4853 99.7897 45.7653 99.235 45.936C99.0643 45.9787 98.787 46 98.403 46C97.4643 46 96.291 45.7867 94.883 45.36C93.5177 44.8907 92.2803 44.3147 91.171 43.632C90.1043 42.9493 89.4857 42.288 89.315 41.648C89.1443 41.008 89.059 38.32 89.059 33.584C84.451 34.1387 81.4217 34.48 79.971 34.608C78.819 37.9787 77.4963 41.6693 76.003 45.68C74.851 45.936 73.7843 46.064 72.803 46.064C71.0963 46.064 69.6457 45.6587 68.451 44.848C67.299 43.9947 66.531 42.7147 66.147 41.008L67.427 38.128C72.1203 27.6747 76.1737 18.9067 79.587 11.824C83.043 4.74133 85.283 1.2 86.307 1.2C87.1177 1.2 88.291 1.49866 89.827 2.096C91.4057 2.69333 92.8137 3.41866 94.051 4.272C95.331 5.12533 96.0563 5.89333 96.227 6.576C96.5257 7.77067 96.931 10.2667 97.443 14.064C97.955 17.8613 98.3603 21.5307 98.659 25.072L99.171 30.064ZM88.867 11.184C86.9897 15.6213 85.1337 20.3787 83.299 25.456C85.2617 25.328 87.203 25.136 89.123 24.88C89.123 18.992 89.0377 14.4267 88.867 11.184ZM134.606 1.2C135.416 1.2 136.504 1.56266 137.87 2.288C139.278 3.01333 140.494 3.86667 141.518 4.848C142.584 5.82933 143.118 6.68267 143.118 7.408C143.118 7.792 142.712 9.49866 141.902 12.528C140.408 17.904 139.299 22.5973 138.574 26.608C138.147 29.1253 137.699 32.432 137.229 36.528C136.803 40.0267 136.419 42.48 136.078 43.888C135.779 45.296 135.288 46 134.606 46C133.368 46 131.918 45.488 130.254 44.464C128.632 43.3973 127.224 42.096 126.03 40.56C125.39 39.7067 124.494 38.0427 123.342 35.568C122.19 33.0933 121.059 30.32 119.95 27.248C118.883 24.1333 118.072 21.232 117.518 18.544L117.07 26.608C116.643 29.1253 116.195 32.432 115.726 36.528C115.299 40.0267 114.915 42.48 114.574 43.888C114.275 45.296 113.784 46 113.102 46C112.12 46 110.947 45.6587 109.582 44.976C108.259 44.2507 107.086 43.3973 106.062 42.416C105.08 41.4347 104.59 40.624 104.59 39.984C104.547 39.3013 104.739 37.872 105.166 35.696C105.635 33.4773 105.934 32.048 106.062 31.408C106.232 30.5547 106.552 28.9973 107.022 26.736C107.491 24.432 107.875 22.2987 108.174 20.336L108.686 17.328C109.496 12.5493 110.243 8.66667 110.926 5.68C111.651 2.69333 112.376 1.2 113.102 1.2C113.827 1.2 114.808 1.52 116.046 2.16C117.326 2.75733 118.478 3.504 119.502 4.4C120.568 5.296 121.251 6.14933 121.55 6.96C123.555 12.336 126.008 19.5893 128.91 28.72L129.678 20.336L130.19 17.328C131 12.5493 131.747 8.66667 132.43 5.68C133.155 2.69333 133.88 1.2 134.606 1.2ZM174.359 30.064C174.401 30.7467 174.551 32.4747 174.807 35.248C175.105 37.9787 175.255 40.2613 175.255 42.096C175.255 44.4853 174.977 45.7653 174.423 45.936C174.252 45.9787 173.975 46 173.591 46C172.652 46 171.479 45.7867 170.071 45.36C168.705 44.8907 167.468 44.3147 166.359 43.632C165.292 42.9493 164.673 42.288 164.503 41.648C164.332 41.008 164.247 38.32 164.247 33.584C159.639 34.1387 156.609 34.48 155.159 34.608C154.007 37.9787 152.684 41.6693 151.191 45.68C150.039 45.936 148.972 46.064 147.991 46.064C146.284 46.064 144.833 45.6587 143.639 44.848C142.486 43.9947 141.718 42.7147 141.334 41.008L142.614 38.128C147.308 27.6747 151.361 18.9067 154.775 11.824C158.231 4.74133 160.471 1.2 161.495 1.2C162.305 1.2 163.479 1.49866 165.015 2.096C166.593 2.69333 168.001 3.41866 169.239 4.272C170.519 5.12533 171.244 5.89333 171.415 6.576C171.713 7.77067 172.119 10.2667 172.631 14.064C173.143 17.8613 173.548 21.5307 173.847 25.072L174.359 30.064ZM164.055 11.184C162.177 15.6213 160.321 20.3787 158.487 25.456C160.449 25.328 162.391 25.136 164.311 24.88C164.311 18.992 164.225 14.4267 164.055 11.184ZM206.175 46.384C203.146 44.6347 200.458 42.4587 198.111 39.856C195.764 37.2533 193.866 34.288 192.415 30.96L192.159 33.648C191.732 37.7867 191.306 40.88 190.879 42.928C190.495 44.976 189.94 46 189.215 46C188.234 46 187.06 45.6373 185.695 44.912C184.372 44.1867 183.199 43.3333 182.175 42.352C181.194 41.3707 180.703 40.56 180.703 39.92C180.703 38.8107 181.748 33.1573 183.839 22.96C184.095 21.7653 184.5 19.7387 185.055 16.88C185.652 13.9787 186.058 11.888 186.271 10.608L183.903 10.992C182.58 9.75466 181.919 8.19733 181.919 6.32C181.919 4.99733 182.282 3.632 183.007 2.224C186.463 1.328 189.962 0.879997 193.503 0.879997C197.258 0.879997 200.735 1.37066 203.935 2.352C207.178 3.33333 209.802 4.848 211.807 6.896C213.812 8.90133 214.815 11.4187 214.815 14.448C214.815 17.9893 213.428 21.04 210.655 23.6C207.882 26.1173 203.807 27.8027 198.431 28.656C200.564 30.6613 202.698 32.2827 204.831 33.52C207.007 34.7147 209.738 35.8667 213.023 36.976C213.194 37.6587 213.279 38.4053 213.279 39.216C213.279 41.1787 212.682 42.8 211.487 44.08C210.292 45.36 208.522 46.128 206.175 46.384ZM193.631 22.448C197.002 22.1067 199.754 21.2107 201.887 19.76C204.063 18.3093 205.151 16.5813 205.151 14.576C205.151 13.296 204.511 12.2293 203.231 11.376C201.994 10.48 200.308 10.032 198.175 10.032C197.407 10.032 196.575 10.096 195.679 10.224C194.996 14.1493 194.676 16.0267 194.719 15.856C194.335 17.9467 193.972 20.144 193.631 22.448ZM249.26 13.872C248.833 14.4267 247.19 16.5387 244.332 20.208C241.473 23.8773 238.465 27.5467 235.308 31.216L234.604 37.04C234.262 40.3253 233.921 42.6507 233.58 44.016C233.281 45.3387 232.79 46 232.108 46C231.126 46 229.953 45.6587 228.588 44.976C227.265 44.2507 226.092 43.3973 225.068 42.416C224.086 41.4347 223.595 40.624 223.595 39.984C223.553 39.216 223.681 38.128 223.98 36.72C224.321 35.2693 224.897 32.88 225.708 29.552L226.156 27.824C225.857 27.1413 224.726 24.7947 222.764 20.784C221.142 17.584 219.926 15.0453 219.116 13.168C218.305 11.248 217.9 9.776 217.9 8.752C217.9 8.02666 218.369 7.17333 219.308 6.192C220.289 5.21066 221.441 4.37866 222.764 3.696C224.129 2.97066 225.345 2.608 226.412 2.608C227.222 2.608 227.862 3.33333 228.332 4.784C228.801 6.192 229.398 8.66667 230.124 12.208C230.806 15.92 231.489 19.0347 232.172 21.552C236.225 14.64 239.638 8.09067 242.412 1.904C243.82 1.52 245.078 1.328 246.188 1.328C248.406 1.328 250.113 1.98933 251.308 3.312C252.545 4.63466 253.206 6.42666 253.292 8.688L249.26 13.872Z" fill="#181718"/>
</svg>
